<?xml version="1.0" standalone="no"?>
<!DOCTYPE svg PUBLIC "-//W3C//DTD SVG 20010904//EN"
 "http://www.w3.org/TR/2001/REC-SVG-20010904/DTD/svg10.dtd">
<svg version="1.0" xmlns="http://www.w3.org/2000/svg"
 width="94.000000pt" height="94.000000pt" viewBox="0 0 94.000000 94.000000"
 preserveAspectRatio="xMidYMid meet">
<metadata>
Created by potrace 1.14, written by Peter Selinger 2001-2017
</metadata>
<g transform="translate(0.000000,94.000000) scale(0.100000,-0.100000)"
fill="#000000" stroke="none">
<path d="M336 897 c-13 -13 -38 -29 -55 -36 -39 -17 -91 -75 -91 -102 0 -31
18 -57 51 -75 29 -14 30 -14 28 3 -5 31 9 67 31 81 l21 13 -2 -293 c-1 -161
-4 -299 -6 -306 -4 -8 -16 -10 -39 -6 -31 6 -34 4 -34 -19 0 -20 7 -28 35 -37
27 -9 35 -17 35 -36 0 -28 16 -30 68 -8 20 8 61 18 90 20 110 11 192 71 218
161 21 73 12 122 -32 167 -19 20 -41 36 -49 36 -24 0 -17 17 13 29 24 10 62
43 106 92 16 18 30 73 29 112 -4 75 -54 142 -130 173 -33 14 -118 27 -180 28
-20 0 -33 5 -33 13 0 22 -49 15 -74 -10z m228 -116 c103 -50 101 -164 -5 -241
-39 -28 -137 -65 -146 -56 -4 4 -7 250 -4 304 1 23 4 24 57 18 31 -3 75 -14
98 -25z m-41 -365 c51 -21 70 -50 70 -105 0 -38 -6 -57 -26 -84 -30 -40 -87
-70 -124 -65 l-27 3 -4 133 -3 132 41 0 c22 0 55 -6 73 -14z"/>
<path d="M716 307 c3 -10 9 -15 12 -12 3 3 0 11 -7 18 -10 9 -11 8 -5 -6z"/>
</g>
</svg>
